<?xml version="1.0" encoding="UTF-8"?>
<svg id="OBJECTS" xmlns="http://www.w3.org/2000/svg" width="310.53" height="409.35" viewBox="0 0 310.53 409.35">
  <path d="M308.94,118.82c-2.17-3.49-5.57-5.36-9.13-6.82-7.13-2.93-14.59-2.82-22.07-1.73-1.75.26-3.47.76-5.23,1.16.03-.46.32-.55.52-.7,4.31-3.26,8.38-6.78,11.98-10.84,3.08-3.47,5.94-7.04,7.43-11.54.56-1.68.96-3.34.95-4.97-.01-1.6-.43-3.18-1.53-4.72-.06-.42-.32-.75-.59-1.07-.37-.44-.76-.87-.72-1.52-.15-.05-.31-.11-.46-.16-.09-.07-.17-.14-.26-.21-.29-.23-.57-.47-.88-.66-1.63-1.02-3.27-1.52-4.89-1.68-3.3-.31-6.52.88-9.52,2.46-3.96,2.08-7.28,5.32-10.16,8.87-.68.83-1.44,1.6-2.22,2.46-.06-.23-.12-.32-.1-.39.05-.21.11-.42.19-.63,2.66-6.68,4.19-13.58,3.95-20.81-.06-1.75-.12-3.55-.73-5.19-1.26-3.4-5.07-5.37-9.19-4.85-.95.12-1.86.34-2.74.63-1.07.35-2.08.83-3.04,1.41-1.15.71-2.22,1.57-3.2,2.57-2.68,2.76-4.71,6.02-6.37,9.47-2.94,6.13-4.66,12.58-4.71,19.43,0,1-.08,2-.41,3.18-.13-.4-.19-.6-.26-.8-2.36-7.21-4.44-14.52-7.86-21.35-1.2-2.39-2.42-4.78-3.73-7.11-1.54-2.74-3.88-4.9-6.24-6.88-2.63-2.21-5.87-2.3-8.89-1.52-1.22-2.45-2.43-4.91-3.83-7.26-2.02-3.4-3.84-6.93-6.61-9.81-.62-.64-.63-.97.29-1.2,2.29-.56,4.33-1.65,6.35-2.84,5.26-3.11,7.75-7.69,7.68-13.75-.01-.88-.08-1.77.04-2.63.24-1.76-.24-2.3-1.97-1.83-1.99.54-3.99,1.08-5.97,1.67-2.55.76-4.45,2.24-5.9,4.38-.52.77-.89,1.63-1.45,2.68-.24-1.8-.38-3.32-.65-4.82-1.15-6.34-3.1-12.36-7.1-17.54-.94-1.21-1.79-1.16-2.46.23-.54,1.11-1.19,2.15-1.75,3.25-2.22,4.39-2.9,8.91-1.03,13.62.27.68.62,1.38.57,2.29-.88-.52-1.62-.98-2.38-1.42-3.78-2.23-7.93-2.42-12.15-2.16-1.09.07-2.51-.34-3.06.96-.53,1.24.43,2.24,1.14,3.19,1.75,2.36,3.54,4.69,5.48,6.92,1.33,1.54,2.77,2.8,4.63,3.59,1.61.68,3.24,1.34,5.01,2.07-2.01,1.69-4.27,2.77-5.79,4.67-1.49,1.86-3.28,3.43-4.88,5.18-.27.29-.55.58-.75.91-.68,1.12-.11,2.4,1.17,2.39,2.56,0,5.08.48,7.62.58,4.53.18,7.86-2.51,11.04-5.22,1.45-1.23,2.75-2.71,4.06-4.12.42-.45.67-.47,1.01,0,.69.97,1.44,1.89,2.06,2.9,2.77,4.48,4.96,9.24,7.16,14-2.46,1.35-3.79,4.08-4.48,6.86-.74,2.96-.63,6.07-.12,9.06.03.15.06.3.09.44.68,3.76,1.71,7.4,3.13,10.91.82,2.03,1.76,4.03,2.83,5.97.16.28.5.54.18.98-.44-.3-.92-.55-1.29-.91-1.23-1.21-2.55-2.3-3.91-3.35-.86-.66-1.74-1.3-2.62-1.93,1.09-2.73.11-5.69-2.51-7.09-.58-.31-1.19-.57-1.82-.77-.35-.11-.58-.26-.72-.48-.14-.21-.21-.47-.24-.83,0-.08-.02-.15-.03-.23-.21-1.95-1.04-3.53-2.91-4.59-2.35-1.34-4.63-1.07-6.97-.18-.97.37-1.89.81-2.77,1.3-1.36.76-2.62,1.66-3.8,2.68-.8.69-1.56,1.43-2.29,2.23-.23.26-.46.81-.91.5-.3-.21-.06-.65.07-.98.45-1.12.78-2.28,1.05-3.45.2-.88.37-1.76.51-2.65.58-3.65.7-7.27-1.18-10.65-.23-.42-.44-.84-.87-1.13-2.49-1.69-5.32-1.71-7.73.07-.6.44-.92.38-1.45-.05-.68-.55-1.45-1.02-2.37-1.04-3.98-.09-7.21,2.4-8.2,6.28-.77,3.06-1.07,6.13-.57,9.26.08.48.23,1.03-.22,1.67-.47-.58-.9-1.11-1.33-1.63-2.1-2.54-4.19-5.06-7.13-6.74-3.33-1.9-7.77-1.17-9.99,1.82-.68.91-.98,1.96-1.04,3.07-.03.56-.25.72-.8.78-.66.07-1.26.24-1.81.49-2.41,1.11-3.64,3.83-2.73,6.57,1.26,3.81,4.02,6.3,7.32,8.29l7.14,4.47c-.88-.06-1.76-.11-2.65-.17-2.96-.2-5.93-.58-8.87-.19-.92.12-1.83.31-2.74.61-.85.28-1.72.51-2.57.79-1.13.37-2.22.83-3.18,1.64-2.74,2.29-3.1,4.92-.96,7.82.38.52.82.91.42,1.73-1.34,2.73-.42,5.89,2.12,7.53.02.02.04.04.07.05,2.72,1.7,5.72,1.96,8.85,1.71,2.38-.19,4.59-1.09,6.91-1.48,0,0,.02.02.02.02-.04.17-.04.38-.14.49-2.01,2.27-3.27,4.98-4.46,7.71-.08.18-.15.36-.23.55-2.47-.91-5,.13-6.38,2.89-.38.76-.72.87-1.48.86-3.55-.05-5.32,2.16-4.51,5.63.2.85.51,1.73,1,2.44.76,1.1.61,1.61-.64,2.14-1.93.81-2.29,1.96-1.49,3.88.8,1.93,2.17,3.37,3.98,4.33,2.36,1.25,4.82,2.19,7.43,2.58-.11.07-.22.13-.32.2-.6.44-.92.38-1.45-.05-.68-.55-1.45-1.02-2.37-1.04-3.98-.09-7.21,2.4-8.2,6.28-.77,3.06-1.07,6.13-.57,9.26.08.48.23,1.03-.22,1.67-.47-.58-.9-1.11-1.33-1.63-2.1-2.54-4.19-5.06-7.13-6.74-3.33-1.9-7.77-1.17-9.99,1.82-.48.65-.77,1.36-.92,2.12-4.03-3.02-7.46-6.65-11.11-10.06-2.45-2.29-3.73-4.76-4.14-8.11-.37-3.01-1.13-6.17-3.91-8.18-.66-3.08-2.29-5.73-3.84-8.4-.52-.89-1.34-1.62-2.23-2.2-2.4-1.56-3.95-1.32-5.37.95-.37.58-.69.35-1.1.28-3.7-.7-8.31,2.52-9.21,6.24-.88,3.66.54,6.33,3.2,8.63,2.7,2.32,5.94,3.08,9.36,3.34,2.56,2.68,6.06,3.28,9.41,4.22,1.24.35,2.76.16,3.61,1.31,1.97,2.69,4.24,5.12,6.6,7.44,2.15,2.12,4.44,4.1,6.67,6.15-.63.08-1.15-.04-1.67-.2-8.26-2.58-16.58-4.95-24.92-7.25-2.71-.75-5.59-.99-8.1-2.42-6.52-3.7-12.13-8.51-17.18-14.01-.46-.5-.5-.94-.34-1.63.94-3.96.97-7.81-1.85-11.16-.33-.4-.19-.84-.35-1.24-.1-4.03-1.28-7.61-4.27-10.48-2.33-2.23-4.6-3.18-6.06-1.44-1.84,2.19-3.76,1.77-5.95,1.91-2.35.15-3.64,2.14-4.96,3.85-1.73,2.24-1.77,4.55-.28,6.95,2.73,4.41,6.74,6.91,11.72,8.01,2.2,3.51,5.7,4.79,9.51,5.45,1,.18,1.72.52,2.36,1.3,1.91,2.31,3.85,4.58,6.16,6.53,1.74,1.47,3.33,3.12,5.2,4.89-.78-.1-1.22-.13-1.65-.22-7.51-1.59-15.07-2.79-22.73-3.29-1.39-.09-2.23-.98-2.74-1.88-2.22-4.01-5.77-5.83-10.07-6.56-3.14-3.65-7.3-5.29-11.92-5.91-3.9-.52-6.54,2.09-6.09,6.01.1.84-.13,1.12-.77,1.53-3,1.9-3.27,4.72-.69,7.18.63.6,1.38,1.17,2.18,1.49,1.24.5,1.4,1.01.63,2.14-1.17,1.74-.85,2.89.88,4.06,1.72,1.17,3.66,1.63,5.7,1.45,3.62-.33,7.08-1.23,10.14-3.31.88.32,1.75.7,2.73.34,2.62-.97,5.13-2.18,7.05-4.25.68-.73,1.23-.86,2.12-.76,5.01.61,9.94,1.73,14.88,2.68,4.23.82,8.41,1.88,12.61,2.84-2.03.94-4.3,1.11-6.05,2.32-2.57,1.78-4.86,1.88-7.71.47-2.89-1.43-6.04-1.23-8.83.79-5.52-.88-10.69-.05-15.39,3.14-3.87,2.62-4.23,7.33-.73,10.43,1.72,1.53,3.63,2.8,6.03,2.85,1.21.02,1.29.5,1.09,1.54-.39,2.01.31,3.12,2.26,3.8,2.26.79,4.36.5,6.26-1.01.61-.48,1.3-.89,1.8-1.46,2.28-2.61,4.92-4.96,6.12-8.35.24-.14.47-.29.71-.43,3.03-1.75,5.8-3.68,5.23-7.84-.11-.78.59-.82,1.06-1.05,3.33-1.61,6.96-2.24,10.51-3.11,2.22-.55,4.38-.4,6.57.2,8.93,2.46,17.79,5.16,26.51,8.31-.53,1.18-.63,2.58-.16,3.99.22.66.49,1.26.79,1.84-.66.2-1.32.4-1.98.61-2.58.83-5.05,1.04-7.77.25-3.32-.97-6.8-1.82-10.28-.35-2.79-1.17-5.71-1.72-8.74-1.79-2.11-.05-3.97.58-5.53,1.92-3.67,3.15-3.92,6.77.43,9.22,1.29.73,1.28,1.02.41,2.07-2.07,2.5-2.03,4.22.11,6.64,2.39,2.72,5.58,3.69,9.03,3.24,5.77-.75,9.74-4.16,12.42-9.2,3.96-1.94,6.5-5.08,7.78-9.26.17-.55.55-.64.98-.73,1.4-.29,2.8-.58,4.2-.88,1.42,1.93,3.32,3.43,5.46,4.72,2.59,1.57,5.26,3,8.07,4.16l-.29.35c-1.09-.07-2.19-.14-3.28-.22-3.88-.27-7.78-.85-11.6.42-1.98.66-4.06,1.02-5.75,2.43-2.74,2.29-3.1,4.92-.96,7.82.38.52.82.91.42,1.73-1.36,2.76-.41,5.95,2.19,7.58,2.72,1.7,5.72,1.96,8.85,1.71,2.38-.19,4.59-1.09,6.91-1.48,0,0,.02.02.02.02-.04.17-.04.38-.14.49-2.01,2.27-3.27,4.98-4.46,7.71-.8,1.83-1.47,3.68-1.55,5.65-.03.77.03,1.57.22,2.38.02.08.02.15.04.23.55,2.15,1.84,3.33,3.87,3.81.97.23,1.96.47,2.98.08.67-.26,1.15.02,1.44.73.02.04.03.08.05.12-.53-.04-1.07-.06-1.63-.03-1.36.06-2.4.64-3,1.9-.64,1.37-.04,2.48.9,3.38,1.02.98,2.19,1.81,3.29,2.7.11,0,.23,0,.17.16,0,.02-.13,0-.2-.01-1.87.3-3.78.08-5.65.47-2.18.45-4.25,1.14-6.24,2.11-.08.04-.16.06-.24.1-1.94,1.02-3.02,2.66-2.74,4.14.3,1.61,1.81,2.82,4.07,3.03,2.77.26,5.51-.18,8.24-.64.51-.08,1.01-.18,1.62-.29-.1,1.15-.8,1.89-1.31,2.7-.7,1.11-1.02,2.27-.84,3.57.28,2.01,1.65,3.01,3.67,2.64,2.65-.49,4.52-2.23,6.35-4.03,2.14-2.1,3.95-4.45,5.41-7.06.06-.11.1-.25.19-.33.57-.51.13-1.7,1.11-1.84.75-.11,1.55.06,2.32.11,4.53.27,9.04.77,13.52,1.44.45.07.96-.01,1.45.55-1.07.45-2.08.86-3.07,1.3-1.79.79-3.49,1.7-4.79,3.23-.86,1.01-1.41,2.18-1.57,3.5-.27,2.22,1.46,4.11,3.7,4.01,2.53-.11,4.58-1.46,6.59-2.8,2.68-1.78,5-3.97,6.94-6.53.77-1.02,1.62-1.32,2.9-1,4.34,1.11,8.75,1.96,13,3.41.08.03.22.05.22.09.02.19-.12.18-.25.16-1.7.72-3.47,1.29-5.17,2.04-3.18,1.38-5.59,3.54-7.26,6.55-.63,1.14-1.06,2.34-.36,3.56.74,1.29,2.03,1.47,3.39,1.4,3.86-.21,7.13-1.9,10.22-4.05,2.61-1.81,4.85-4.01,6.67-6.63.33-.47.62-.8,1.25-.6,3.4,1.12,6.78,2.32,10.11,3.65.11.04.18.18.27.27.11,0,.25,0,.19.18,0,.02-.14,0-.21,0-2.89.6-5.61,1.64-8.21,3.06-1.87,1.03-3.35,2.44-4.58,4.12-1.71,2.33-.72,4.83,2.13,5.36,3.81.71,7.44-.05,10.71-2.01,3.07-1.84,5.92-4.02,8.15-6.88.41-.53.8-.38,1.24-.18.99.44,1.97.89,2.96,1.35-6.37,4.73-10.95,8.93-12.24,11.61-.82.07-.93.47-.84,1.13.13.88.66,1.5,1.29,2.08,2.06,1.92,10.79,13.87,21.65,31.26-.09.23-.14.5-.16.82-.08,1.68,1.02,2.3,2.34,2.7,2.9,4.71,5.91,9.76,8.98,15.08-1.24,2.65-2.13,5.18-2.49,7.11-1.03,5.48,1.21,10.15,5.86,13.73,1.81,1.4,5.01,1.64,8.39.62,11.71,22.6,16.24,35.7,16.98,37.68.52,1.26,3.38,3.13,7.22,5,1.18,5.01,2.13,10.06,2.77,15.18.06.47.04.95.07,1.42.09,1.41.93,2.32,2.03,2.18,1.09-.14,1.71-1.22,1.47-2.61-.21-1.28-.46-2.55-.68-3.82-.6-3.62-1.36-7.2-2.21-10.76.93.4,1.89.78,2.87,1.16,2.37,8.14,3.97,16.43,3.05,25.19-.13,1.26.71,2.12,1.95,2.32,1.18.2,2.01-.41,2.48-1.51.22-.52.25-1.07.29-1.62.26-4.35-.12-8.65-1-12.9-.69-3.33-1.47-6.63-2.33-9.91.19.06.38.12.57.18,1.65,5.81,3.49,11.55,5.61,17.22.65,1.73,1.24,3.48,1.89,5.21.7,1.89,2.23,2.78,3.68,2.18,1.45-.6,1.86-2.33.96-4.13-.3-.61-.66-1.19-.92-1.81-2.38-5.69-4.46-11.49-6.32-17.36.58.13,1.14.24,1.69.33.82,2.28,1.61,4.58,2.32,6.91.14.45.2.93.31,1.39.32,1.38,1.31,2.13,2.36,1.81,1.05-.32,1.48-1.49,1.02-2.82-.43-1.22-.88-2.43-1.3-3.66-.38-1.09-.78-2.18-1.19-3.26,3.04.04,4.82-.89,4.08-3.37-.92-2.27-4.24-9.47-9.35-34.36,2.34-2.19,1.58-5.07-.47-6.7-.34-.27-.69-.6-1.05-.95-.97-5.04-1.99-10.66-3.07-16.97,3.9-.76,6.89-2.92,8.39-5.45,2.26-3.81,1.07-7.88-1.23-11.33-2.27-3.4-6.09-6.52-10.69-9.13-.31-3.26-.55-6.45-.75-9.57.82-.71,1.46-1.44,1.9-2.15.35-1.4,1.07-2.79.13-4.23-.8-1.01-1.61-1.63-2.44-1.92-1.07-29.54,2.33-50.57,3.41-53.94.3-.93.08-1.71-.61-2.24-.21-2.04-1.61-3.1-3.89-3.36.05-.91.11-1.82.15-2.74.03-.58.33-.86.75-1.13.78-.11,1.57-.21,2.35-.33,3.85-.63,7.6-1.55,10.62-4.24,1.91-1.7,4.06-3.08,6.04-4.68.86-.69,1.74-1.34,2.42-2.22,3.42-4.45,7.04-8.7,9.33-13.97,1.96-4.53,3.83-9.02,4.89-13.86,1.08-4.98,2.18-9.95,2.45-15.06.46-.25.93-.5,1.38-.76,2.05-1.19,2.93-2.92,2.45-5.17-.43-2.04-1.2-3.95-2.81-5.4-.12-.88.05-1.74.11-2.62.18-2.64,1-5.15,1.5-7.73.18-.9.18-1.79-.73-2.33-.86-.51-1.59-.06-2.29.44-2.16,1.57-4.32,3.14-6.84,4.11-4.04-2.21-7.92-4.7-12.14-6.61,7.03-.15,13.91-1,20.58-3.08,3.94-1.23,7.56-3.03,9.74-6.89,1.25-2.22,1.07-4.18-.25-6.29Z" fill="#fff" stroke="#251e1c" stroke-miterlimit="10"/>
</svg>